<svg xmlns="http://www.w3.org/2000/svg" width="30" height="31" fill="none" viewBox="0 0 30 31">
  <path fill="#000" fill-rule="evenodd" d="M15.5 27.7c6.213 0 11.25-5.238 11.25-11.7 0-6.462-5.037-11.7-11.25-11.7S4.25 9.538 4.25 16c0 6.462 5.037 11.7 11.25 11.7Zm0 1.3C22.404 29 28 23.18 28 16S22.404 3 15.5 3 3 8.82 3 16s5.596 13 12.5 13Z" clip-rule="evenodd"/>
  <path fill="#000" d="M8 23.84c0-.722.482-1.333 1.125-1.413 4.822-.598 7.95-.544 12.761.013.24.028.468.134.655.305.188.171.327.4.4.657.074.258.078.534.014.795-.064.26-.195.495-.376.674-5.678 5.543-8.923 5.466-14.179.005a1.497 1.497 0 0 1-.4-1.035Z"/>
  <path fill="#000" fill-rule="evenodd" d="M21.224 22.749c-4.7-.527-7.735-.576-12.434-.013a.619.619 0 0 0-.4.227.72.72 0 0 0-.16.458c0 .19.074.371.198.496 2.564 2.578 4.508 3.742 6.407 3.75 1.907.007 3.954-1.148 6.73-3.768a.67.67 0 0 0 .182-.32.712.712 0 0 0-.007-.375.664.664 0 0 0-.196-.31.584.584 0 0 0-.32-.144v-.001ZM8.655 21.41c4.798-.576 7.922-.524 12.696.012.356.04.693.192.97.437.278.244.484.571.592.94.109.37.116.766.02 1.14-.096.373-.29.708-.56.963-2.814 2.659-5.159 4.107-7.542 4.097-2.389-.01-4.63-1.482-7.24-4.105a2.019 2.019 0 0 1-.437-.67A2.157 2.157 0 0 1 7 23.42c0-.497.168-.977.473-1.348a1.82 1.82 0 0 1 1.182-.662Z" clip-rule="evenodd"/>
  <path fill="#000" d="M21 13a5 5 0 1 1-10 0 5 5 0 0 1 10 0Z"/>
  <path fill="#000" fill-rule="evenodd" d="M16 16.75a3.75 3.75 0 1 0 0-7.5 3.75 3.75 0 0 0 0 7.5ZM16 18a5 5 0 1 0 0-10 5 5 0 0 0 0 10Z" clip-rule="evenodd"/>
</svg>
